# xmcd CD database file
#
# Track frame offsets:
#	150
#	26462
#	59525
#	77525
#	100177
#	119037
#	139830
#	167405
#	187125
#	210687
#	242640
#
# Disc length: 3546 seconds
#
# Revision: 0
# Processed by: cddbd v1.4PL0 Copyright (c) Steve Scherf et al.
# Submitted via: NeoAudio 9.9.9
#
DISCID=970dd80b
DTITLE=Leo Mitrulis - Bom Passeio
DYEAR=1900
DGENRE=Jazz
TTITLE0=beijupira
TTITLE1=terra vermelha
TTITLE2=pitanga
TTITLE3=primeiro samba
TTITLE4=reggae de java
TTITLE5=de caso pensado
TTITLE6=mesa posta
TTITLE7=quiproquo arrumadinho
TTITLE8=trilhos rurais
TTITLE9=mantra
TTITLE10=pitanga (em quarteto)
EXTD=
EXTT0=
EXTT1=
EXTT2=
EXTT3=
EXTT4=
EXTT5=
EXTT6=
EXTT7=
EXTT8=
EXTT9=
EXTT10=
PLAYORDER=
